<svg xmlns="http://www.w3.org/2000/svg" width="280" height="80" viewBox="0 0 280 80"><path fill="#959595" d="M29.5 15.7h-1.3c-.1-1.2-.4-2.1-.8-2.6-.4-.6-.8-.9-1.3-1s-1-.2-1.6-.2H22V26c0 .6.1 1 .2 1.3.1.3.4.5.8.7s1 .3 1.8.3v1.3h-9.6v-1.3c1.2 0 1.9-.2 2.3-.5s.5-.9.5-1.8V11.8h-2c-.8 0-1.5.1-2 .2s-1 .5-1.4 1c-.4.6-.6 1.5-.7 2.6h-1.3v-5.5h19v5.6zM75.5 10v19.7c0 .7-.3 1.3-.8 1.8s-1.1.8-1.8.8H47.1c-.7 0-1.3-.3-1.8-.8s-.8-1.1-.8-1.8V10c0-.7.3-1.3.8-1.8s1.1-.8 1.8-.8H73c.7 0 1.3.3 1.8.8s.7 1.1.7 1.8zm-2.6-.5H47.1c-.1 0-.3.1-.4.2s-.2.2-.2.4v19.7c0 .1.1.3.2.4s.2.2.4.2H73c.1 0 .3-.1.4-.2s.2-.2.2-.4V10c0-.1-.1-.3-.2-.4s-.3-.1-.5-.1zm-19 3c.6.6.9 1.3.9 2.2s-.3 1.6-.9 2.2c-.6.6-1.3.9-2.2.9-.9 0-1.6-.3-2.2-.9-.6-.6-.9-1.3-.9-2.2s.3-1.6.9-2.2c.6-.6 1.3-.9 2.2-.9.9 0 1.6.3 2.2.9zm17.5 8.4v7.2H48.6V25l5.2-5.2 2.6 2.6 8.3-8.3 6.7 6.8zM191.3 11.5c.3.3.6.7.8 1.2.2.5.3 1 .3 1.4v18.6c0 .4-.2.8-.5 1.1-.3.3-.7.5-1.1.5H169c-.4 0-.8-.2-1.1-.5-.3-.3-.5-.7-.5-1.1V6.9c0-.4.2-.8.5-1.1.3-.3.7-.5 1.1-.5h14.5c.4 0 .9.1 1.4.3.5.2.9.5 1.2.8l5.2 5.1zm-.9 20.8V15.7h-6.7c-.4 0-.8-.2-1.1-.5-.3-.3-.5-.7-.5-1.1V7.4h-12.4v24.9h20.7zm-16.6-14c0-.2 0-.3.1-.4.1-.1.2-.1.4-.1h11.4c.2 0 .3 0 .4.1.1.1.1.2.1.4v1c0 .2 0 .3-.1.4s-.2.1-.4.1h-11.4c-.2 0-.3 0-.4-.1s-.1-.2-.1-.4v-1zm11.9 3.6c.2 0 .3 0 .4.1s.1.2.1.4v1c0 .2 0 .3-.1.4s-.2.1-.4.1h-11.4c-.2 0-.3 0-.4-.1s-.1-.2-.1-.4v-1c0-.2 0-.3.1-.4s.2-.1.4-.1h11.4zm0 4.2c.2 0 .3 0 .4.1s.1.2.1.4v1c0 .2 0 .3-.1.4-.1.1-.2.1-.4.1h-11.4c-.2 0-.3 0-.4-.1-.1-.1-.1-.2-.1-.4v-1c0-.2 0-.3.1-.4s.2-.1.4-.1h11.4zm-1.6-18.6v6.1h6.1c-.1-.3-.2-.5-.4-.7l-5.1-5.1s-.2-.2-.6-.3zM261.1 14.3v3.3h-2.2v-3.3h-3.3l4.4-4.4 4.4 4.4h-3.3zm-2.2 11.1v-3.3h2.2v3.3h3.3l-4.4 4.4-4.4-4.4h3.3zm-5.6-6.7v2.2h13.3v-2.2h-13.3zM114.5 17.4v4.8s-.1 1.3-.1 2.2-.2 1.7-.4 2.4c-.2.8-.5 1.5-1.1 2-.6.5-1.2.9-2 .9-2.4.3-6 .4-10.9.4s-8.5-.1-10.9-.4c-.8-.1-1.4-.4-2-.9-.6-.5-1-1.2-1.1-2-.2-.7-.3-1.5-.3-2.4s-.1-1.6-.1-2.2v-2.4-2.4s.1-1.3.1-2.2.2-1.7.4-2.4c.2-.8.5-1.5 1.1-2s1.2-.9 2-.9c2.4-.3 6-.4 10.9-.4s8.5.1 10.9.4c.8.1 1.4.4 2 .9s1 1.2 1.1 2c.2.7.3 1.5.3 2.4s.1 1.6.1 2.2zm-8.3 2.4c0-.4-.2-.7-.5-.9l-8.3-5.2c-.3-.2-.7-.2-1.1 0-.4.2-.5.5-.5.9V25c0 .4.2.7.5.9.2.1.3.1.5.1s.4-.1.5-.2l8.3-5.2c.5-.1.6-.4.6-.8z"/><path fill="#9F9F9F" d="M150.9 6.4c-.2 0-.3 0-.5.1L137 10.6c-.3.1-.6.3-.8.6-.2.3-.3.6-.3.9v15.6c-.9-.4-2-.6-3.1-.6-.5 0-1 .1-1.6.2-.6.1-1.1.3-1.7.5-.6.2-1 .6-1.4 1-.4.4-.6.9-.6 1.4s.2 1 .6 1.4c.4.4.8.7 1.4 1 .6.2 1.1.4 1.7.5.6.1 1.1.2 1.6.2s1-.1 1.6-.2c.6-.1 1.1-.3 1.7-.5.6-.2 1-.6 1.4-1 .4-.4.5-.9.5-1.4V18.7l12.4-3.8v8.7c-.9-.4-2-.6-3.1-.6-.5 0-1 .1-1.6.2-.6.1-1.1.3-1.7.5-.6.2-1 .6-1.4 1-.4.4-.6.9-.6 1.4 0 .5.2 1 .6 1.4.4.4.8.7 1.4 1 .6.2 1.1.4 1.7.5.6.1 1.1.2 1.6.2s1-.1 1.6-.2c.6-.1 1.1-.3 1.7-.5.6-.2 1-.6 1.4-1 .4-.4.5-.9.5-1.4V7.9c0-.4-.2-.8-.5-1.1-.3-.3-.7-.4-1.1-.4"/><path fill="#008DC8" d="M87 59h20v2H87zM87 63h20v2H87zM87 67h20v2H87zM85 51v6h29v-6H85zm22 4H87v-2h20v2zm3.6 0l-2-2h4l-2 2zM9.4 55.4H7.9c-.4 0-.7-.1-.9-.2-.2-.1-.3-.3-.3-.6s.1-.5.2-.6c.2-.1.6-.2 1.3-.2h3.1c.4 0 .7.1.8.2.1.1.3.3.4.6l4.2 10.5h.2c.4 0 .7.1.8.2.1.1.2.3.2.6s-.1.5-.2.6c-.1.1-.4.2-.8.2H14c-.5 0-.9-.1-1-.2-.2-.1-.2-.3-.2-.6s.1-.5.3-.6c.2-.1.5-.2.9-.2h1l-1-2.6H8.4l-.9 2.6h1c.5 0 .8.1 1 .2.2.1.3.3.3.6s-.1.5-.2.6c-.2.1-.5.2-1 .2h-3c-.5 0-.8-.1-.9-.2-.2-.1-.2-.3-.2-.6s.1-.5.2-.6.4-.2.9-.2h.2l3.6-9.7zm-.5 5.7h4.4L11 55.4l-2.1 5.7zM21.5 58.2c.4-.5.9-.9 1.5-1.1.6-.3 1.3-.4 2-.4 1.4 0 2.6.5 3.6 1.5s1.4 2.2 1.4 3.6-.5 2.6-1.5 3.6-2.2 1.5-3.6 1.5c-.8 0-1.4-.1-2-.4-.6-.3-1-.7-1.4-1.2v.9c0 .2 0 .3-.1.4-.1.1-.2.1-.3.1h-2c-.3 0-.5-.1-.6-.2-.1-.1-.2-.3-.2-.6s.1-.5.2-.6c.2-.1.5-.2 1-.2h.2v-11h-.2c-.5 0-.8-.1-1-.2s-.3-.3-.3-.6.1-.5.2-.6c.1-.1.4-.2.6-.2h1.6c.2 0 .4 0 .5.1.1.1.1.2.1.3v5.3zm3.4 6.9c1 0 1.8-.3 2.5-1 .6-.6.9-1.5.9-2.5s-.3-1.8-1-2.5c-.6-.6-1.5-1-2.4-1-1 0-1.8.3-2.4 1-.6.6-.9 1.5-.9 2.5s.3 1.8.9 2.5c.6.7 1.4 1 2.4 1zM35.5 51v-1.5H31V51h1.5v17.4H31v1.5h4.5v-1.5H34V51M49 51.2h22v2H49zM49 56.2h22v2H49zM49 61.2h22v2H49zM49 66.2h16v2H49z"/><circle fill="#008DC8" cx="133.5" cy="52.7" r="3"/><path fill="#008DC8" d="M133.5 63.7c-1.7 0-3 1.3-3 3s1.3 3 3 3 3-1.3 3-3-1.3-3-3-3zm0 5c-1.1 0-2-.9-2-2s.9-2 2-2 2 .9 2 2-.9 2-2 2zM139.5 51.7h10v2h-10zM139.5 58.7h10v2h-10zM139.5 65.7h10v2h-10zM133.5 56.7c-1.7 0-3 1.3-3 3s1.3 3 3 3 3-1.3 3-3-1.3-3-3-3zm0 5c-1.1 0-2-.9-2-2s.9-2 2-2 2 .9 2 2-.9 2-2 2zM214.4 59.7c-.6 0-1.5.3-1.9.8l-.6.6c-.4.4-.3.8.3.8h15.6c.6 0 .8-.3.3-.8l-.6-.6c-.4-.4-1.3-.8-1.9-.8h-11.2zm2.3 0v1.1h6.7v-1.1h-6.7zM227.8 63h-15.6c-.6 0-1.1.5-1.1 1.1v4.4c0 .6.5 1.1 1.1 1.1h15.6c.6 0 1.1-.5 1.1-1.1v-4.4c0-.6-.5-1.1-1.1-1.1zm-5.6 4.5h-8.9v-1.1h8.9v1.1zm3.4 0c-.6 0-1.1-.5-1.1-1.1 0-.6.5-1.1 1.1-1.1.6 0 1.1.5 1.1 1.1 0 .6-.5 1.1-1.1 1.1zM217.8 54.1h4.4v5.6h-4.4z"/><path fill="#008DC8" d="M222.5 52.2l-2.5-2.5-5.6 5.5h11.2M180.5 53h9.5v1.9h-9.5zM180.5 56.8h5.7v1.9h-5.7zM180.5 64.5h9.5v1.9h-9.5zM180.5 68.3h5.7v1.9h-5.7zM174.7 53.9l-1.9-1.9-.9 2 2.8 2.8 5.8-5.7-1.9-1.9"/><path fill="#008DC8" d="M177.6 57.8h-6.7v-6.7h4.8v-1H170v8.6h8.6v-3.8h-1M170 61.6v8.6h8.6v-8.6H170zm7.6 7.6h-6.7v-6.7h6.7v6.7z"/><path fill="#959595" d="M234 12.3v12.9c0 .4-.1.8-.3 1.1-.2.3-.5.6-.8.8L221 33.6c-.3.2-.7.3-1 .3-.4 0-.7-.1-1-.3l-11.8-6.5c-.3-.2-.6-.5-.8-.8-.2-.3-.3-.7-.3-1.1V12.3c0-.4.1-.9.4-1.2.3-.4.6-.6 1-.8L219.3 6c.2-.1.5-.1.7-.1s.5 0 .7.1l11.8 4.3c.4.2.8.4 1 .8.4.3.5.8.5 1.2zm-14 4.2l11.7-4.3L220 8l-11.7 4.3 11.7 4.2zm1.1 14.6l10.8-5.9V14.5l-10.8 3.9v12.7z"/></svg>