<?xml version="1.0" encoding="UTF-8" standalone="no"?>
<svg width="1120px" height="1120px" viewBox="0 0 1120 1120" version="1.1" xmlns="http://www.w3.org/2000/svg" xmlns:xlink="http://www.w3.org/1999/xlink" xmlns:sketch="http://www.bohemiancoding.com/sketch/ns">
    <!-- Generator: Sketch 3.0.4 (8053) - http://www.bohemiancoding.com/sketch -->
    <title>Artboard 1</title>
    <desc>Created with Sketch.</desc>
    <defs></defs>
    <g id="Page-1" stroke="none" stroke-width="1" fill="none" fill-rule="evenodd" sketch:type="MSPage">
        <g id="Artboard-1" sketch:type="MSArtboardGroup">
            <g id="Radio-Button" sketch:type="MSLayerGroup" transform="translate(231.000000, 232.000000)" fill="#0091CD">
                <g id="Group" sketch:type="MSShapeGroup">
                    <path d="M3,6 C4.65685425,6 6,4.65685425 6,3 C6,1.34314575 4.65685425,0 3,0 C1.34314575,0 0,1.34314575 0,3 C0,4.65685425 1.34314575,6 3,6 Z M3,13 C4.65685425,13 6,11.6568542 6,10 C6,8.34314575 4.65685425,7 3,7 C1.34314575,7 0,8.34314575 0,10 C0,11.6568542 1.34314575,13 3,13 Z M3,12 C4.1045695,12 5,11.1045695 5,10 C5,8.8954305 4.1045695,8 3,8 C1.8954305,8 1,8.8954305 1,10 C1,11.1045695 1.8954305,12 3,12 Z M3,20 C4.65685425,20 6,18.6568542 6,17 C6,15.3431458 4.65685425,14 3,14 C1.34314575,14 0,15.3431458 0,17 C0,18.6568542 1.34314575,20 3,20 Z M3,19 C4.1045695,19 5,18.1045695 5,17 C5,15.8954305 4.1045695,15 3,15 C1.8954305,15 1,15.8954305 1,17 C1,18.1045695 1.8954305,19 3,19 Z M9,2 L9,4 L19,4 L19,2 L9,2 Z M9,9 L9,11 L19,11 L19,9 L9,9 Z M9,16 L9,18 L19,18 L19,16 L9,16 Z" id="Oval-45"></path>
                </g>
            </g>
            <g id="Text-2" sketch:type="MSLayerGroup" transform="translate(73.000000, 63.000000)" fill="#959595">
                <g id="Text-+-Path-67" sketch:type="MSShapeGroup">
                    <path d="M6,16 L6,2 L9,2 L9,16.0000003 C9,17 10,18 11,18 L12,18 L12,19 L3,19 L3,18 L4,18 C5,18 6,17 6,16 Z M-5.68434189e-14,6 L0,0 L15,0 L15,6 L14,6 C14,6 14,2 10,2 L5,2 C1,2 1,6 1,6 L-5.68434189e-14,6 Z" id="Path-67"></path>
                </g>
            </g>
            <g id="Image-2" sketch:type="MSLayerGroup" transform="translate(230.000000, 62.000000)" fill="#959595">
                <g id="Image-+-Rectangle-54" sketch:type="MSShapeGroup">
                    <path d="M0,0 L0,20 L25,20 L25,0 L0,0 Z M2,2 L2,18 L23,18 L23,2 L2,2 Z M18.5,9 C19.8807119,9 21,7.88071187 21,6.5 C21,5.11928813 19.8807119,4 18.5,4 C17.1192881,4 16,5.11928813 16,6.5 C16,7.88071187 17.1192881,9 18.5,9 Z M4,16 L4,10 C4,10 5.97809796,5.74714229 9,6 C12.021902,6.25285771 13,9.9204252 15,10.9204252 C17,11.9204252 21,12 21,12 L21,16 L4,16 Z" id="Rectangle-54"></path>
                </g>
            </g>
            <circle id="Oval-156" stroke="#7AC428" fill="#7ED321" sketch:type="MSShapeGroup" cx="720.5" cy="240.5" r="5.5"></circle>
            <path d="M720,240 L720,237 L721,237 L721,240 L724,240 L724,241 L721,241 L721,244 L720,244 L720,241 L717,241 L717,240 L720,240 Z" id="Rectangle-524" fill="#FFFFFF" sketch:type="MSShapeGroup"></path>
            <g id="Video-2" sketch:type="MSLayerGroup" transform="translate(389.000000, 62.000000)" fill="#959595">
                <g id="Video-+-Rectangle-56" sketch:type="MSShapeGroup">
                    <path d="M6.99713691,0 C3.1327249,0 0,3.125 0,6.99502945 L0,13.0049706 C0,16.8682186 3.14095342,20 6.99713691,20 L18.0028631,20 C21.8672751,20 25,16.875 25,13.0049706 L25,6.99502945 C25,3.13178136 21.8590466,0 18.0028631,0 L6.99713691,0 Z M10.0000002,13.5000001 L17.863961,9.50000054 L9.99999994,5.50000006 L10.0000002,13.5000001 Z" id="Rectangle-56"></path>
                </g>
            </g>
            <g id="Audio-2" sketch:type="MSLayerGroup" transform="translate(551.000000, 62.000000)" fill="#959595">
                <g id="Audio-+-Oval-41" sketch:type="MSShapeGroup">
                    <path d="M16,4.46153846 L16,11.3368156 C15.5453723,11.1208455 15.0367986,11 14.5,11 C12.5670034,11 11,12.5670034 11,14.5 C11,16.4329966 12.5670034,18 14.5,18 C16.4329966,18 18,16.4329966 18,14.5 C18,14.4111911 17.9966923,14.3231547 17.9901935,14.2360073 L17.9901935,14.2360073 C17.9966393,14.1606071 18,14.0819839 18,14 L18,2 L18,0 L5,3 L5,5.5 L5,13.3368156 C4.54537231,13.1208455 4.03679865,13 3.5,13 C1.56700338,13 0,14.5670034 0,16.5 C0,18.4329966 1.56700338,20 3.5,20 C5.43299662,20 7,18.4329966 7,16.5 C7,16.4275197 6.99779683,16.355554 6.99345381,16.2841661 L6.99345381,16.2841661 C6.99776824,16.1948495 7,16.1002145 7,16 L7,6.53846154 L16,4.46153846 Z" id="Oval-41"></path>
                </g>
            </g>
            <g id="Document-2" sketch:type="MSLayerGroup" transform="translate(712.000000, 62.000000)" fill="#959595">
                <rect id="Rectangle-59" sketch:type="MSShapeGroup" x="3" y="6" width="6" height="2"></rect>
                <rect id="Rectangle-60" sketch:type="MSShapeGroup" x="3" y="10" width="10" height="2"></rect>
                <rect id="Rectangle-66" sketch:type="MSShapeGroup" x="3" y="14" width="10" height="2"></rect>
                <path d="M0,0 L0,20 L16,20 L16,5 L11.3268237,0 L0,0 Z M10,5.99999952 L14,5.99999962 L14,18 L2,18 L2,2 L10,2 L10,5.99999952 Z" id="Rectangle-58" sketch:type="MSShapeGroup"></path>
            </g>
            <g id="Section-Break" sketch:type="MSLayerGroup" transform="translate(1034.000000, 71.000000)" fill="#959595">
                <g id="Group" sketch:type="MSShapeGroup">
                    <path d="M7,3.99999991 L7,7 L5,7 L5,3.99999994 L2,3.99999999 L5.99999993,5.59407782e-08 L9.99999999,3.99999986 L7,3.99999991 Z M5,14.0000001 L5,11 L7,11 L7,14.0000001 L10,14 L6.00000007,17.9999999 L2.00000001,14.0000001 L5,14.0000001 Z M0,8 L0,10 L12,10 L12,8 L0,8 Z" id="Rectangle-68"></path>
                </g>
            </g>
            <g id="Text-Input" sketch:type="MSLayerGroup" transform="translate(68.000000, 234.000000)" fill="#0091CD">
                <g id="Text-Input-+-Rectangle-64-+-Ab" sketch:type="MSShapeGroup">
                    <path d="M23,14 L23,2 L25,2 L25,0 L19,0 L19,2 L21,2 L21,2 L21,14 L19,14 L19,16 L25,16 L25,14 L23,14 L23,14 Z M7.1171875,9.5546875 L3.2265625,9.5546875 L2.8359375,10.53125 L3.2265625,10.53125 C3.61198109,10.53125 3.88671793,10.605468 4.05078125,10.7539062 C4.21484457,10.9023445 4.296875,11.096353 4.296875,11.3359375 C4.296875,11.5703137 4.21484457,11.761718 4.05078125,11.9101562 C3.88671793,12.0585945 3.61198109,12.1328125 3.2265625,12.1328125 L1.0703125,12.1328125 C0.684893906,12.1328125 0.41015707,12.0585945 0.24609375,11.9101562 C0.0820304297,11.761718 0,11.5677095 0,11.328125 C0,11.0885405 0.0859366406,10.8932299 0.2578125,10.7421875 C0.429688359,10.5911451 0.713539687,10.5208333 1.109375,10.53125 L3.625,4.265625 L2.578125,4.265625 C2.19270641,4.265625 1.91796957,4.19140699 1.75390625,4.04296875 C1.58984293,3.89453051 1.5078125,3.70052203 1.5078125,3.4609375 C1.5078125,3.22135297 1.58984293,3.02734449 1.75390625,2.87890625 C1.91796957,2.73046801 2.19270641,2.65625 2.578125,2.65625 L6.0390625,2.6640625 L9.2265625,10.53125 C9.60156438,10.53125 9.84895773,10.5729163 9.96875,10.65625 C10.2083345,10.8281259 10.328125,11.0546861 10.328125,11.3359375 C10.328125,11.5703137 10.2473966,11.761718 10.0859375,11.9101562 C9.92447836,12.0585945 9.65104359,12.1328125 9.265625,12.1328125 L7.109375,12.1328125 C6.72395641,12.1328125 6.44921957,12.0585945 6.28515625,11.9101562 C6.12109293,11.761718 6.0390625,11.5677095 6.0390625,11.328125 C6.0390625,11.0937488 6.12109293,10.9023445 6.28515625,10.7539062 C6.44921957,10.605468 6.72395641,10.53125 7.109375,10.53125 L7.5,10.53125 L7.1171875,9.5546875 Z M6.453125,7.953125 L5.1640625,4.78125 L3.8671875,7.953125 L6.453125,7.953125 Z M13.5421876,2 L13.5421876,5.59375 C13.9328145,5.33854039 14.329946,5.14713605 14.7335938,5.01953125 C15.1372417,4.89192645 15.5447897,4.828125 15.9562501,4.828125 C17.0656306,4.828125 18.0057254,5.21093367 18.7765626,5.9765625 C19.5473998,6.74219133 19.9328126,7.66666125 19.9328126,8.75 C19.9328126,9.78646352 19.5656287,10.6523403 18.8312501,11.3476562 C18.0968714,12.0429722 17.1281311,12.390625 15.9250001,12.390625 C15.4979146,12.390625 15.0864604,12.335938 14.6906251,12.2265625 C14.2947898,12.117187 13.9119811,11.9557302 13.5421876,11.7421875 L13.5421876,12.1328125 L11.6671876,12.1328125 C11.281769,12.1328125 11.0070321,12.0585945 10.8429688,11.9101562 C10.6789055,11.761718 10.5968751,11.5677095 10.5968751,11.328125 C10.5968751,11.0937488 10.6802076,10.9023445 10.8468751,10.7539062 C11.0135426,10.605468 11.2869773,10.53125 11.6671876,10.53125 L11.9406251,10.53125 L11.9406251,3.6015625 L11.6671876,3.6015625 C11.281769,3.6015625 11.0070321,3.52734449 10.8429688,3.37890625 C10.6789055,3.23046801 10.5968751,3.03645953 10.5968751,2.796875 C10.5968751,2.56249883 10.6789055,2.37109449 10.8429688,2.22265625 C11.0070321,2.07421801 11.281769,2 11.6671876,2 L13.5421876,2 Z M18.3312501,8.796875 C18.3312501,8.13541336 18.0994816,7.57552313 17.6359376,7.1171875 C17.1723936,6.65885187 16.6046909,6.4296875 15.9328126,6.4296875 C15.2661426,6.4296875 14.7010441,6.65885187 14.2375001,7.1171875 C13.7739561,7.57552313 13.5421876,8.12760094 13.5421876,8.7734375 C13.5421876,9.36198211 13.7505188,9.8450502 14.1671876,10.2226562 C14.5838563,10.6002623 15.1723921,10.7890625 15.9328126,10.7890625 C16.693233,10.7890625 17.2830709,10.6002623 17.7023438,10.2226562 C18.1216168,9.8450502 18.3312501,9.36979453 18.3312501,8.796875 Z" id="Rectangle-64"></path>
                </g>
            </g>
            <g id="Multiple-Choice" sketch:type="MSLayerGroup" transform="translate(390.000000, 231.000000)" fill="#0091CD">
                <g id="Group" sketch:type="MSShapeGroup">
                    <g>
                        <rect id="Rectangle-102" x="11" y="4" width="10" height="2"></rect>
                        <rect id="Rectangle-101" x="11" y="8" width="6" height="2"></rect>
                        <rect id="Rectangle-100" x="11" y="16" width="10" height="2"></rect>
                        <rect id="Rectangle-99" x="11" y="20" width="6" height="2"></rect>
                        <path d="M4.90909091,4.90909091 L3,3 L2,5 L5,8 L11,2 L9,0 L4.90909091,4.90909091 Z" id="Path-90"></path>
                        <path d="M8,9 L1,9 L1,2 L6,2 L6,1 L9,1 L9,4.28792082 L9,6 L8,6 L8,9 Z M0,10 L9,10 L9,1 L0,1 L0,10 Z" id="Rectangle-104"></path>
                        <path d="M0,13 L0,22 L9,22 L9,13 L0,13 Z M1,14 L1,21 L8,21 L8,14 L1,14 Z" id="Rectangle"></path>
                    </g>
                </g>
            </g>
            <g id="Discussion" sketch:type="MSLayerGroup" transform="translate(867.000000, 69.000000)" fill="#959595">
                <g sketch:type="MSShapeGroup">
                    <path d="M12.4102475,3.01152448 C13.1778043,1.23946676 14.9404141,0 16.9950291,0 L21.0049709,0 C23.7636493,0 26,2.24419519 26,5 C26,7.05189104 24.7666366,8.81510154 23,9.58572925 L23,9.58572925 L23,13 L20,10 L19,10 C19,6.27329961 16.0788276,3.2214622 12.4102475,3.01152448 Z" id="Rectangle-225"></path>
                    <path d="M1,10 C1,6.69303423 3.68341003,4 6.99356405,4 L12.0064359,4 C15.3062995,4 18,6.6862915 18,10 C18,13.3069658 15.31659,16 12.0064359,16 L8,16 L4,20 L4,15.1965218 C2.20931362,14.1589006 1,12.220287 1,10 Z" id="Rectangle-226" stroke="#FFFFFF"></path>
                </g>
            </g>
            <g id="Icon.-Upload" sketch:type="MSLayerGroup" transform="translate(552.000000, 231.000000)">
                <rect id="Rectangle-222" fill="#0091CD" sketch:type="MSShapeGroup" x="0" y="12" width="16" height="6" rx="1"></rect>
                <path d="M3.00247329,9 C2.44882258,9 1.6875,9.3125 1.28924346,9.71075654 L0.71075654,10.2892435 C0.318216542,10.6817835 0.444630861,11 1.00087166,11 L14.9991283,11 C15.5518945,11 15.6875,10.6875 15.2892435,10.2892435 L14.7107565,9.71075654 C14.3182165,9.31821654 13.544239,9 12.9975267,9 L3.00247329,9 Z M5,9 L5,10 L11,10 L11,9 L5,9 Z" id="Rectangle-223" fill="#0091CD" sketch:type="MSShapeGroup"></path>
                <rect id="Rectangle-224" fill="#FFFFFF" sketch:type="MSShapeGroup" x="2" y="15" width="8" height="1"></rect>
                <circle id="Oval-60" fill="#FFFFFF" sketch:type="MSShapeGroup" cx="13" cy="15" r="1"></circle>
                <rect id="Rectangle-225" fill="#0091CD" sketch:type="MSShapeGroup" x="6" y="4" width="4" height="5"></rect>
                <path d="M10.2586051,2.25860507 L8,0 L3,5 L13,5 L10.2586051,2.25860507 Z" id="Path-205" fill="#0091CD" sketch:type="MSShapeGroup"></path>
            </g>
            <path d="M880.5,233 C876.356,233 873,236.357 873,240.5 C873,244.643 876.356,248 880.5,248 C884.642,248 888,244.643 888,240.5 C888,236.357 884.642,233 880.5,233 L880.5,233 Z M880.5,246 C877.461,246 875,243.537 875,240.5 C875,237.461 877.461,235 880.5,235 C883.537,235 886,237.461 886,240.5 C886,243.537 883.537,246 880.5,246 L880.5,246 Z M882,239 L883,238 C883,238 883,237 881,237 L881,236 L880,236 L880,237 C878,237 878,239 878,239 C878,239 878,241 880,241 L880,243 C880,243 879,243 879,242 L878,243 C878,243 878,244 880,244 L880,245 L881,245 L881,244 C883,244 883,242 883,242 C883,242 883,239.973 881,239.973 L881,238 C881,238 882,238 882,239 L882,239 Z M880,239.973 C880,239.973 879,240 879,239 C879,238 880,238 880,238 L880,239.973 L880,239.973 Z M882,242 C882,243 881,243 881,243 L881,241 C881,241 882,241 882,242 L882,242 Z" id="Imported-Layers" fill="#B5B5B5" sketch:type="MSShapeGroup"></path>
            <path d="M1039.5,233 C1035.357,233 1032,236.357 1032,240.5 C1032,244.643 1035.357,248 1039.5,248 C1043.643,248 1047.001,244.643 1047.001,240.5 C1047.001,236.357 1043.643,233 1039.5,233 L1039.5,233 Z M1039.5,246 C1036.462,246 1034,243.537 1034,240.5 C1034,237.462 1036.462,235 1039.5,235 C1042.537,235 1045.001,237.462 1045.001,240.5 C1045.001,243.537 1042.537,246 1039.5,246 L1039.5,246 Z M1042,241 L1040,241 L1040,237 C1040,236.447 1039.553,236 1039,236 C1038.448,236 1038,236.447 1038,237 L1038,242 C1038,242.553 1038.448,243 1039,243 L1042,243 C1042.553,243 1043.001,242.553 1043.001,242 C1043.001,241.447 1042.553,241 1042,241 L1042,241 Z" id="Imported-Layers" fill="#B5B5B5" sketch:type="MSShapeGroup"></path>
            <path d="M80.5,393 C76.356,393 73,396.357 73,400.5 C73,404.475 76.089,407.726 80,407.982 C80.165,407.994 80.332,408 80.5,408 C84.642,408 88,404.643 88,400.5 C88,396.357 84.642,393 80.5,393 L80.5,393 Z M85.929,399.653 C85.606,400.001 85.138,400.395 84.487,400.733 C84.419,398.267 83.448,396.513 82.443,395.359 C84.266,396.049 85.622,397.676 85.929,399.653 L85.929,399.653 Z M77.559,401.93 C78.275,402.178 79.086,402.369 80,402.451 L80,405.975 C79.99,405.974 79.98,405.974 79.97,405.973 C79.032,405.373 77.826,404.174 77.559,401.93 L77.559,401.93 Z M80,395.318 L80,401.443 C79.051,401.346 78.218,401.123 77.508,400.838 C77.561,398.031 78.936,396.265 80,395.318 L80,395.318 Z M81.047,405.973 C81.031,405.974 81.016,405.973 81,405.975 L81,402.499 C81.915,402.499 82.711,402.39 83.399,402.211 C83.071,404.281 81.944,405.402 81.047,405.973 L81.047,405.973 Z M81,401.499 L81,395.332 C82.086,396.307 83.5,398.126 83.5,400.999 C83.5,401.049 83.494,401.091 83.493,401.139 C82.808,401.356 81.988,401.499 81,401.499 L81,401.499 Z M78.557,395.359 C77.602,396.456 76.678,398.097 76.531,400.375 C75.932,400.045 75.459,399.693 75.11,399.397 C75.489,397.534 76.813,396.019 78.557,395.359 L78.557,395.359 Z M75.005,400.598 C75.42,400.902 75.925,401.221 76.527,401.51 C76.619,403.177 77.143,404.404 77.807,405.293 C76.159,404.365 75.041,402.615 75.005,400.598 L75.005,400.598 Z M83.194,405.291 C83.813,404.464 84.316,403.347 84.456,401.85 C85.069,401.59 85.573,401.279 85.977,400.961 C85.822,402.823 84.741,404.42 83.194,405.291 L83.194,405.291 Z" id="Imported-Layers" fill="#B5B5B5" sketch:type="MSShapeGroup"></path>
            <path d="M400.4235,399.009947 L394.414,393 L393,394.415 L399.009053,400.4245 L392.999,406.435 L394.413,407.849 L400.423224,401.838776 L406.434,407.85 L407.848,406.435 L401.837724,400.424276 L407.847,394.415 L406.433,393 L400.4235,399.009947 Z" id="Fill-1" fill="#F04541" sketch:type="MSShapeGroup"></path>
            <path d="M250,394.5 L248.641,393 L237.07,404.529 L232.4,400.1 L231,401.5 L237.07,407.272 L250,394.5" id="Imported-Layers" fill="#1DC066" sketch:type="MSShapeGroup"></path>
            <path d="M719.5,391 C714.262,391 710,395.26 710,400.5 C710,405.74 714.262,410 719.5,410 C724.737,410 729,405.74 729,400.5 C729,395.26 724.737,391 719.5,391 L719.5,391 Z M724.806,404.391 C725.196,404.782 725.194,405.413 724.804,405.803 C724.413,406.193 723.782,406.195 723.392,405.805 L719.5,401.914 L715.609,405.805 C715.218,406.195 714.588,406.193 714.197,405.803 C713.805,405.412 713.804,404.781 714.195,404.391 L718.086,400.5 L714.195,396.609 C713.805,396.219 713.843,395.55 714.196,395.196 C714.549,394.842 715.219,394.805 715.609,395.195 L719.5,399.086 L723.392,395.195 C723.782,394.804 724.412,394.805 724.804,395.197 C725.194,395.588 725.196,396.218 724.806,396.609 L720.914,400.5 L724.806,404.391 L724.806,404.391 Z" id="Imported-Layers" fill="#F04541" sketch:type="MSShapeGroup"></path>
            <path d="M560.5,391 C555.262,391 551,395.26 551,400.5 C551,405.74 555.262,410 560.5,410 C565.738,410 570,405.74 570,400.5 C570,395.26 565.738,391 560.5,391 L560.5,391 Z M565.941,397.962 L559.037,404.666 L554.733,400.562 C554.342,400.171 554.38,399.502 554.734,399.149 C555.088,398.796 555.756,398.757 556.147,399.148 L559.037,401.837 L564.527,396.547 C564.918,396.156 565.548,396.157 565.94,396.549 C566.33,396.94 566.332,397.571 565.941,397.962 L565.941,397.962 Z" id="Imported-Layers" fill="#1DC066" sketch:type="MSShapeGroup"></path>
        </g>
    </g>
</svg>