<?xml version="1.0" encoding="utf-8"?>
<!-- Generator: Adobe Illustrator 18.0.0, SVG Export Plug-In . SVG Version: 6.00 Build 0)  -->
<!DOCTYPE svg PUBLIC "-//W3C//DTD SVG 1.1//EN" "http://www.w3.org/Graphics/SVG/1.1/DTD/svg11.dtd">
<svg version="1.1" id="Layer_1" xmlns:sketch="http://www.bohemiancoding.com/sketch/ns"
	 xmlns="http://www.w3.org/2000/svg" xmlns:xlink="http://www.w3.org/1999/xlink" x="0px" y="0px" viewBox="271 71 560 560"
	 enable-background="new 271 71 560 560" xml:space="preserve">
<title>Artboard 1</title>
<desc>Created with Sketch.</desc>
<g id="Page-1" sketch:type="MSPage">
	<g id="Artboard-1" sketch:type="MSArtboardGroup">
		<path id="Imported-Layers" sketch:type="MSShapeGroup" fill="#FFFFFF" d="M551,71c-153.3,0-280,126.7-280,280s126.7,280,280,280
			s280-126.7,280-280S704.3,71,551,71L551,71z M710.2,277.3L506.8,474.8L380.1,353.9c-11.8-11.8-11.8-32.4,0-41.3
			c11.8-11.8,29.5-11.8,41.3,0l85.5,79.6l162.1-156.2c11.8-11.8,29.5-11.8,41.3,0C721.9,244.9,721.9,265.5,710.2,277.3L710.2,277.3z
			"/>
	</g>
</g>
</svg>
