<?xml version="1.0" encoding="utf-8"?>
<!-- Generator: Adobe Illustrator 18.0.0, SVG Export Plug-In . SVG Version: 6.00 Build 0)  -->
<!DOCTYPE svg PUBLIC "-//W3C//DTD SVG 1.1//EN" "http://www.w3.org/Graphics/SVG/1.1/DTD/svg11.dtd">
<svg version="1.1" id="Layer_1" xmlns:sketch="http://www.bohemiancoding.com/sketch/ns"
	 xmlns="http://www.w3.org/2000/svg" xmlns:xlink="http://www.w3.org/1999/xlink" x="0px" y="0px" viewBox="71 71 19 19"
	 enable-background="new 71 71 19 19" xml:space="preserve" preserveAspectRatio="xMinYMid">
<title>Artboard 1</title>
<desc>Created with Sketch.</desc>
<g id="Page-1" sketch:type="MSPage">
	<g id="Artboard-1" sketch:type="MSArtboardGroup">
		<path id="Imported-Layers" sketch:type="MSShapeGroup" fill="#3FBE89" d="M80.5,71c-5.2,0-9.5,4.3-9.5,9.5s4.3,9.5,9.5,9.5
			s9.5-4.3,9.5-9.5S85.7,71,80.5,71L80.5,71z M85.9,78L79,84.7l-4.3-4.1c-0.4-0.4-0.4-1.1,0-1.4c0.4-0.4,1-0.4,1.4,0l2.9,2.7
			l5.5-5.3c0.4-0.4,1-0.4,1.4,0C86.3,76.9,86.3,77.6,85.9,78L85.9,78z"/>
	</g>
</g>
</svg>
