<?xml version="1.0" encoding="utf-8"?>
<!-- Generator: Adobe Illustrator 18.1.1, SVG Export Plug-In . SVG Version: 6.00 Build 0)  -->
<svg version="1.1" id="Layer_1" xmlns="http://www.w3.org/2000/svg" xmlns:xlink="http://www.w3.org/1999/xlink" x="0px" y="0px"
	 viewBox="0 0 865 864.9" enable-background="new 0 0 865 864.9" xml:space="preserve" preserveAspectRatio="xMinYMid">
<path fill="#DEE127" d="M774.7,432.4l77.7,76c11.3,10.5,15,23.6,11.3,39.4c-4.5,15.4-14.3,25-29.3,28.7l-105.8,27l29.8,104.7
	c4.5,15.4,0.9,28.5-10.7,39.4c-10.9,11.6-24,15.2-39.4,10.7l-104.7-29.8l-27,105.8c-3.8,15-13.3,24.8-28.7,29.3
	c-4.5,0.7-8.1,1.1-10.7,1.1c-11.6,0-21.2-4.1-28.7-12.4l-76-77.7l-76,77.7c-10.5,11.3-23.6,15-39.4,11.3
	c-15.4-4.1-25-13.9-28.7-29.3l-27-105.8l-104.7,29.8c-15.4,4.5-28.5,0.9-39.4-10.7c-11.6-10.9-15.2-24-10.7-39.4l29.8-104.7
	l-105.8-27c-15-3.7-24.8-13.3-29.3-28.7c-3.7-15.8,0-28.9,11.3-39.4l77.7-76l-77.7-76C1.4,345.9-2.3,332.8,1.4,317
	c4.5-15.4,14.3-24.9,29.3-28.7l105.8-27l-29.8-104.7c-4.5-15.4-0.9-28.5,10.7-39.4c10.9-11.6,24-15.2,39.4-10.7l104.7,29.8l27-105.8
	c3.7-15.4,13.3-24.9,28.7-28.7c15.4-4.5,28.5-0.9,39.4,10.7l76,78.2l76-78.2c10.9-11.3,24-14.8,39.4-10.7
	c15.4,3.8,24.9,13.3,28.7,28.7l27,105.8l104.7-29.8c15.4-4.5,28.5-0.9,39.4,10.7c11.6,10.9,15.2,24,10.7,39.4l-29.8,104.7l105.8,27
	c15,3.8,24.8,13.3,29.3,28.7c3.7,15.8,0,28.9-11.3,39.4L774.7,432.4z"/>
</svg>
