<?xml version="1.0" encoding="utf-8"?>
<!-- Generator: Adobe Illustrator 18.0.0, SVG Export Plug-In . SVG Version: 6.00 Build 0)  -->
<!DOCTYPE svg PUBLIC "-//W3C//DTD SVG 1.1//EN" "http://www.w3.org/Graphics/SVG/1.1/DTD/svg11.dtd">
<svg version="1.1" id="Layer_1" xmlns="http://www.w3.org/2000/svg" xmlns:xlink="http://www.w3.org/1999/xlink" x="0px" y="0px"
	 viewBox="0 0 17.3 16" style="enable-background:new 0 0 17.3 16;" xml:space="preserve" preserveAspectRatio="xMinYMid">
<style type="text/css">
	.st0{fill:#31BEE9;}
</style>
<symbol  id="cp_x5F_workbook" viewBox="-8.7 -8 17.3 16">
	<g>
		<path class="st0" d="M8.4,4.4C8.7,4,8.7,3.5,8.6,3L5.7-6.4C5.6-6.9,5.3-7.2,4.9-7.5C4.5-7.8,4.1-8,3.7-8H-6C-6.5-8-7-7.8-7.5-7.4
			c-0.5,0.4-0.8,0.8-1,1.4c-0.2,0.5-0.2,0.9,0,1.3c0,0,0,0.1,0,0.3c0,0.2,0,0.3,0,0.4c0,0.1,0,0.1,0,0.2c0,0.1,0,0.2,0,0.2
			c0,0.1,0,0.1,0.1,0.2c0,0.1,0.1,0.2,0.2,0.2C-8.2-3.1-8.2-3-8.1-2.9C-8-2.7-7.8-2.4-7.7-2c0.2,0.4,0.3,0.7,0.3,1
			c0,0.1,0,0.2,0,0.3c0,0.1,0,0.2,0,0.3c0,0.1,0.1,0.2,0.2,0.3C-7.1,0-7,0.1-7,0.1c0.1,0.3,0.3,0.6,0.4,1C-6.4,1.4-6.3,1.8-6.3,2
			c0,0.1,0,0.2,0,0.3c0,0.2,0,0.3,0,0.3c0,0.1,0.1,0.2,0.2,0.3C-6,3.1-5.9,3.1-5.9,3.2C-5.7,3.3-5.6,3.6-5.4,4
			c0.2,0.4,0.3,0.7,0.3,1c0,0.1,0,0.1,0,0.3c0,0.1,0,0.2,0,0.3c0,0.1,0,0.1,0.1,0.2C-5,5.9-5,5.9-4.9,6c0.1,0.1,0.1,0.2,0.2,0.2
			c0.1,0.1,0.1,0.2,0.2,0.3c0.1,0.1,0.1,0.3,0.2,0.4c0,0.1,0.1,0.2,0.2,0.4C-4.2,7.4-4.1,7.5-4,7.6C-4,7.7-3.9,7.8-3.7,7.9
			C-3.6,8-3.5,8-3.4,8c0.1,0,0.3,0,0.5-0.1l0,0C-2.6,8-2.4,8-2.4,8h7.9c0.5,0,0.9-0.2,1.2-0.6C7,7,7.1,6.6,6.9,6.1L4.1-3.4
			C3.8-4.2,3.6-4.7,3.3-5C3.1-5.2,2.7-5.3,2-5.3H-7c-0.2,0-0.3-0.1-0.4-0.2c-0.1-0.1-0.1-0.3,0-0.4c0.2-0.5,0.7-0.7,1.5-0.7h9.6
			c0.2,0,0.4,0.1,0.6,0.2c0.2,0.1,0.3,0.3,0.4,0.4L7.7,4.2c0,0.2,0.1,0.4,0.1,0.6C8.1,4.7,8.3,4.5,8.4,4.4z M-3.5,1.7
			c0-0.1,0-0.2,0-0.2c0-0.1,0.1-0.1,0.2-0.1H3c0.1,0,0.2,0,0.3,0.1c0.1,0.1,0.1,0.1,0.2,0.2l0.2,0.7c0,0.1,0,0.2,0,0.2
			c0,0.1-0.1,0.1-0.2,0.1h-6.3c-0.1,0-0.2,0-0.3-0.1c-0.1-0.1-0.1-0.1-0.2-0.2L-3.5,1.7z M-2.7,4.3c0-0.1,0-0.2,0-0.2
			C-2.6,4-2.5,4-2.4,4h6.3C4,4,4.1,4,4.1,4.1c0.1,0.1,0.1,0.1,0.2,0.2L4.5,5c0,0.1,0,0.2,0,0.2c0,0.1-0.1,0.1-0.2,0.1H-2
			c-0.1,0-0.2,0-0.3-0.1C-2.4,5.2-2.4,5.1-2.5,5L-2.7,4.3z"/>
	</g>
</symbol>
<use xlink:href="#cp_x5F_workbook"  width="17.3" height="16" x="-8.7" y="-8" transform="matrix(1 0 0 -1 8.6735 8)" style="overflow:visible;"/>
</svg>
