<?xml version="1.0" encoding="utf-8"?>
<!-- Generator: Adobe Illustrator 18.0.0, SVG Export Plug-In . SVG Version: 6.00 Build 0)  -->
<!DOCTYPE svg PUBLIC "-//W3C//DTD SVG 1.1//EN" "http://www.w3.org/Graphics/SVG/1.1/DTD/svg11.dtd">
<svg version="1.1" id="Layer_1" xmlns="http://www.w3.org/2000/svg" xmlns:xlink="http://www.w3.org/1999/xlink" x="0px" y="0px"
	 viewBox="0 0 16 14" style="enable-background:new 0 0 16 14;" xml:space="preserve" preserveAspectRatio="xMinYMid">
<style type="text/css">
	.st0{fill:#F2B189;}
</style>
<symbol  id="cp_x5F_bell" viewBox="0 -14 16 14">
	<g>
		<g>
			<g>
				<path class="st0" d="M14-7c0,5-3,5-3,5v1c0,0,0,1-1,1S9-1,9-1v-1c0,0-3,0-3-5c0-3-1-5-2-5v-1h4c0,0,0-1,2-1s2,1,2,1h4v1
					C15-12,14-10,14-7z M5-4c0,1-1,1-1,1H0v-2h4C4-5,5-5,5-4z M5-7c0,1-1,1-1,1H0v-2h4C4-8,5-8,5-7z M3-9H0v-2h3c0,0,1,0,1,1
					S3-9,3-9z"/>
			</g>
		</g>
	</g>
</symbol>
<use xlink:href="#cp_x5F_bell"  width="16" height="14" y="-14" transform="matrix(1 0 0 -1 0 0)" style="overflow:visible;"/>
</svg>
