<?xml version="1.0" encoding="utf-8"?>
<!-- Generator: Adobe Illustrator 18.0.0, SVG Export Plug-In . SVG Version: 6.00 Build 0)  -->
<!DOCTYPE svg PUBLIC "-//W3C//DTD SVG 1.1//EN" "http://www.w3.org/Graphics/SVG/1.1/DTD/svg11.dtd">
<svg version="1.1" id="Layer_1" xmlns="http://www.w3.org/2000/svg" xmlns:xlink="http://www.w3.org/1999/xlink" x="0px" y="0px"
	 viewBox="0 0 16 16" style="enable-background:new 0 0 16 16;" xml:space="preserve" preserveAspectRatio="xMinYMid">
<style type="text/css">
	.st0{fill:#74D1D4;}
</style>
<symbol  id="cp_x5F_info" viewBox="-8 -8 16 16">
	<g>
		<g>
			<g>
				<path class="st0" d="M0,8c-4.4,0-8-3.6-8-8s3.6-8,8-8s8,3.6,8,8S4.4,8,0,8z M0-6c-3.3,0-6,2.7-6,6s2.7,6,6,6s6-2.7,6-6
					S3.3-6,0-6z M-0.7-4h1.5v5.3h-1.5V-4z M0.7,3.7C0.6,3.8,0.5,3.9,0.4,3.9C0.3,3.9,0.2,4,0,4c-0.1,0-0.2,0-0.4-0.1
					c-0.1-0.1-0.2-0.1-0.3-0.2s-0.1-0.2-0.2-0.3S-1,3.2-1,3c0-0.1,0-0.2,0.1-0.4c0-0.1,0.1-0.2,0.2-0.3s0.2-0.2,0.3-0.2
					C-0.3,2.1-0.2,2,0,2c0.1,0,0.3,0,0.4,0.1c0.1,0,0.2,0.1,0.3,0.2s0.2,0.2,0.2,0.3S1,2.8,1,3c0,0.1,0,0.3-0.1,0.4
					C0.9,3.5,0.8,3.7,0.7,3.7z"/>
			</g>
		</g>
	</g>
</symbol>
<use xlink:href="#cp_x5F_info"  width="16" height="16" x="-8" y="-8" transform="matrix(1 0 0 -1 8 8)" style="overflow:visible;"/>
</svg>
