<?xml version="1.0" encoding="utf-8"?>
<!-- Generator: Adobe Illustrator 18.0.0, SVG Export Plug-In . SVG Version: 6.00 Build 0)  -->
<!DOCTYPE svg PUBLIC "-//W3C//DTD SVG 1.1//EN" "http://www.w3.org/Graphics/SVG/1.1/DTD/svg11.dtd">
<svg version="1.1" id="Layer_1" xmlns:sketch="http://www.bohemiancoding.com/sketch/ns"
	 xmlns="http://www.w3.org/2000/svg" xmlns:xlink="http://www.w3.org/1999/xlink" x="0px" y="0px" viewBox="229.2 29.2 500.6 500.6"
	 enable-background="new 229.2 29.2 500.6 500.6" xml:space="preserve">
<title>Artboard 1</title>
<desc>Created with Sketch.</desc>
<path id="Imported-Layers_5_" sketch:type="MSShapeGroup" fill="#1DC066" d="M479.5,29.2c-138,0-250.3,112.2-250.3,250.3
	s112.3,250.3,250.3,250.3s250.3-112.2,250.3-250.3S617.5,29.2,479.5,29.2L479.5,29.2z M622.8,212.6L441,389.3L327.6,281.1
	c-10.3-10.3-9.3-27.9,0-37.2c9.3-9.3,26.9-10.3,37.2,0l76.1,70.8l144.6-139.4c10.3-10.3,26.9-10.3,37.2,0.1
	C633.1,185.7,633.1,202.3,622.8,212.6L622.8,212.6z"/>
</svg>
